<svg xmlns="http://www.w3.org/2000/svg">
    <symbol id="vk">
        <g clip-path="url(#clip0_52881_92)">
            <path d="M15 0C6.71779 0 0 6.71779 0 15C0 23.2822 6.71779 30 15 30C23.2822 30 30 23.2822 30 15C30 6.71779 23.2822 0 15 0ZM22.6074 16.6258C23.3129 17.3006 24.0491 17.9448 24.6626 18.7117C24.9387 19.0491 25.2147 19.3865 25.3988 19.7853C25.6748 20.3374 25.4294 20.9509 24.9387 20.9816H21.8712C21.0736 21.0429 20.4601 20.7362 19.908 20.184C19.4785 19.7546 19.0798 19.2945 18.681 18.8344C18.5276 18.6503 18.3436 18.4663 18.1288 18.3436C17.6994 18.0675 17.3313 18.1595 17.1166 18.589C16.8712 19.0491 16.8098 19.5399 16.7791 20.0307C16.7485 20.7669 16.5337 20.9509 15.7975 20.9816C14.2331 21.0429 12.7607 20.8282 11.411 20.0307C10.2147 19.3252 9.2638 18.3742 8.46626 17.2699C6.87117 15.1227 5.67485 12.7607 4.57055 10.3374C4.32515 9.78528 4.5092 9.5092 5.1227 9.47853C6.13497 9.44785 7.11656 9.44785 8.12883 9.47853C8.52761 9.47853 8.80368 9.72393 8.95706 10.092C9.5092 11.411 10.1534 12.6994 10.9816 13.865C11.1963 14.1718 11.4417 14.4785 11.7485 14.7239C12.1166 14.9693 12.362 14.8773 12.546 14.4785C12.638 14.2331 12.6994 13.9571 12.7301 13.681C12.8221 12.7607 12.8221 11.8405 12.6687 10.9202C12.5767 10.3067 12.2699 9.93865 11.6871 9.81595C11.3804 9.7546 11.4417 9.66258 11.5644 9.47853C11.8098 9.20245 12.0552 9.0184 12.5153 9.0184H15.9816C16.5337 9.1411 16.6564 9.35583 16.7178 9.90797V13.773C16.7178 13.9877 16.8098 14.6319 17.2086 14.7546C17.5153 14.8466 17.7301 14.6012 17.9141 14.4172C18.7423 13.5276 19.3252 12.4847 19.8773 11.411C20.1227 10.9202 20.3067 10.4294 20.5215 9.93865C20.6748 9.57055 20.8896 9.3865 21.319 9.3865H24.6626C24.7546 9.3865 24.8466 9.3865 24.9693 9.41718C25.5215 9.5092 25.6748 9.7546 25.5215 10.3067C25.2454 11.1656 24.7239 11.9018 24.2025 12.6074C23.6503 13.3742 23.0368 14.1104 22.4847 14.908C21.9325 15.6442 21.9632 16.0123 22.6074 16.6258Z" fill="#B3B3B3"/>
        </g>
        <defs>
        <clipPath id="clip0_52881_92">
            <rect width="30" height="30" fill="white"/>
        </clipPath>
        </defs>
    </symbol>
    
    <symbol id="inst">
        <g clip-path="url(#clip0_52905_65)">
            <path d="M17.8711 15C17.8711 16.5879 16.5879 17.8711 15 17.8711C13.4121 17.8711 12.1289 16.5879 12.1289 15C12.1289 13.4121 13.4121 12.1289 15 12.1289C16.5879 12.1289 17.8711 13.4121 17.8711 15Z" fill="#B3B3B3"/>
            <path d="M21.7148 9.91992C21.5742 9.54492 21.3574 9.20508 21.0703 8.92969C20.7949 8.64258 20.4551 8.42578 20.0801 8.28516C19.7754 8.16797 19.3184 8.02734 18.4805 7.98633C17.5723 7.94531 17.2969 7.93359 15 7.93359C12.6973 7.93359 12.4277 7.93945 11.5195 7.98633C10.6816 8.02734 10.2246 8.16797 9.91992 8.28516C9.54492 8.42578 9.20508 8.64258 8.92969 8.92969C8.64258 9.20508 8.42578 9.54492 8.28516 9.91992C8.16797 10.2246 8.02734 10.6816 7.98633 11.5195C7.94531 12.4277 7.93359 12.6973 7.93359 15C7.93359 17.2969 7.94531 17.5723 7.98633 18.4805C8.02734 19.3184 8.16211 19.7754 8.28516 20.0801C8.42578 20.4551 8.64258 20.7949 8.92969 21.0703C9.20508 21.3574 9.54492 21.5742 9.91992 21.7148C10.2246 21.832 10.6816 21.9727 11.5195 22.0137C12.4277 22.0547 12.6973 22.0664 15 22.0664C17.3027 22.0664 17.5723 22.0605 18.4805 22.0137C19.3184 21.9727 19.7754 21.8379 20.0801 21.7148C20.8301 21.4277 21.4277 20.8301 21.7148 20.0801C21.832 19.7754 21.9727 19.3184 22.0137 18.4805C22.0547 17.5723 22.0664 17.2969 22.0664 15C22.0664 12.6973 22.0605 12.4277 22.0137 11.5195C21.9727 10.6816 21.832 10.2246 21.7148 9.91992ZM15 19.4238C12.5566 19.4238 10.5762 17.4434 10.5762 15C10.5762 12.5566 12.5566 10.5762 15 10.5762C17.4434 10.5762 19.4238 12.5566 19.4238 15C19.4238 17.4434 17.4434 19.4238 15 19.4238ZM19.5996 11.4375C19.0312 11.4375 18.5684 10.9746 18.5684 10.4063C18.5684 9.83789 19.0312 9.375 19.5996 9.375C20.168 9.375 20.6309 9.83789 20.6309 10.4063C20.6309 10.9746 20.168 11.4375 19.5996 11.4375Z" fill="#B3B3B3"/>
            <path d="M15 0C6.71484 0 0 6.71484 0 15C0 23.2852 6.71484 30 15 30C23.2852 30 30 23.2852 30 15C30 6.71484 23.2852 0 15 0ZM23.5605 18.5508C23.5195 19.4648 23.373 20.0918 23.1621 20.6426C22.7168 21.7969 21.8027 22.7168 20.6426 23.1621C20.0977 23.373 19.4707 23.5195 18.5508 23.5605C17.6309 23.6016 17.3379 23.6133 15 23.6133C12.6621 23.6133 12.3691 23.6016 11.4492 23.5605C10.5352 23.5195 9.9082 23.373 9.35742 23.1621C8.7832 22.9453 8.26172 22.6055 7.83398 22.166C7.39453 21.7383 7.05469 21.2168 6.83789 20.6426C6.62695 20.0977 6.48047 19.4707 6.43945 18.5508C6.39844 17.6309 6.38672 17.3379 6.38672 15C6.38672 12.6621 6.39844 12.3691 6.43945 11.4492C6.48047 10.5352 6.62695 9.9082 6.83789 9.35742C7.05469 8.7832 7.39453 8.26172 7.83398 7.83398C8.26172 7.39453 8.7832 7.05469 9.35742 6.83789C9.9082 6.62695 10.5293 6.48047 11.4492 6.43945C12.3691 6.39844 12.6621 6.38672 15 6.38672C17.3379 6.38672 17.6309 6.39844 18.5508 6.43945C19.4648 6.48047 20.0918 6.62695 20.6426 6.83789C21.2168 7.05469 21.7383 7.39453 22.166 7.83398C22.6055 8.26172 22.9453 8.7832 23.1621 9.35742C23.373 9.9082 23.5195 10.5293 23.5605 11.4492C23.6016 12.3691 23.6133 12.6621 23.6133 15C23.6133 17.3379 23.6016 17.6309 23.5605 18.5508Z" fill="#B3B3B3"/>
        </g>
        <defs>
            <clipPath id="clip0_52905_65">
                <rect width="30" height="30" fill="white"/>
            </clipPath>
        </defs>
    </symbol>
    
    <symbol id="tg">
        <path d="M15 30C23.2852 30 30 23.2852 30 15C30 6.71484 23.2852 0 15 0C6.71484 0 0 6.71484 0 15C0 23.2852 6.71484 30 15 30ZM6.86133 14.6777L21.3281 9.09961C22.002 8.85938 22.5879 9.26367 22.3652 10.2773L19.9043 21.8789C19.7227 22.6992 19.2305 22.9043 18.5508 22.5117L14.8008 19.7461L12.9902 21.4863C12.791 21.6855 12.6211 21.8555 12.2344 21.8555L12.498 18.041L19.4531 11.7656C19.7578 11.502 19.3828 11.3496 18.9844 11.6133L10.3945 17.0215L6.69141 15.8672C5.88867 15.6094 5.87109 15.0645 6.86133 14.6777Z" fill="#B3B3B3"/>
    </symbol>

    <symbol id="fb">
        <path d="M30 15C30 6.71484 23.2852 0 15 0C6.71484 0 0 6.71484 0 15C0 23.2852 6.71484 30 15 30C15.0879 30 15.1758 30 15.2637 29.9941V18.3223H12.041V14.5664H15.2637V11.8008C15.2637 8.5957 17.2207 6.84961 20.0801 6.84961C21.4512 6.84961 22.6289 6.94922 22.9688 6.99609V10.3477H21C19.4473 10.3477 19.1426 11.0859 19.1426 12.1699V14.5605H22.8633L22.377 18.3164H19.1426V29.4199C25.4121 27.6211 30 21.8496 30 15Z" fill="black"/>
    </symbol>

    <symbol id="phone">
        <path d="M11.9741 9.29781C11.9401 9.19554 11.7242 9.04488 11.3264 8.84619C11.2186 8.78357 11.0651 8.69846 10.8664 8.59049C10.6675 8.48252 10.487 8.38303 10.3252 8.2921C10.163 8.20121 10.0111 8.11314 9.86919 8.02804C9.8465 8.01099 9.77548 7.96135 9.65617 7.87879C9.53674 7.79646 9.43602 7.73535 9.35348 7.6955C9.27112 7.65589 9.19011 7.63595 9.11055 7.63595C8.99694 7.63595 8.85503 7.71696 8.68464 7.87879C8.51425 8.04082 8.35795 8.21682 8.21598 8.40733C8.07398 8.59774 7.92339 8.77375 7.76446 8.93569C7.60529 9.09769 7.47452 9.17861 7.37237 9.17861C7.32108 9.17861 7.25714 9.16432 7.18052 9.13611C7.10392 9.10772 7.04565 9.08339 7.00565 9.06378C6.96601 9.04375 6.89798 9.00411 6.80132 8.94425C6.70448 8.88458 6.65063 8.8519 6.63929 8.84619C5.86093 8.41428 5.19337 7.91995 4.63651 7.36332C4.07982 6.80636 3.58543 6.13887 3.15363 5.36041C3.14796 5.34904 3.11521 5.29504 3.0556 5.1985C2.9959 5.10188 2.95611 5.03379 2.93623 4.99391C2.91635 4.95417 2.8922 4.89591 2.86384 4.81922C2.83548 4.74253 2.82124 4.67865 2.82124 4.62746C2.82124 4.52525 2.90223 4.3945 3.06417 4.23539C3.22608 4.07638 3.40226 3.92575 3.59253 3.78381C3.78295 3.64187 3.95895 3.48557 4.12092 3.31518C4.28283 3.1447 4.36379 3.00273 4.36379 2.88912C4.36379 2.80963 4.34391 2.72858 4.30418 2.64622C4.26441 2.56368 4.20334 2.46297 4.12092 2.34359C4.03847 2.22428 3.98877 2.15332 3.9717 2.13049C3.88656 1.98855 3.79859 1.83658 3.70758 1.67464C3.61656 1.51272 3.51722 1.33225 3.40922 1.13341C3.30131 0.934661 3.21614 0.781198 3.15357 0.673257C2.95483 0.275613 2.80429 0.0596122 2.70199 0.0256419C2.6622 0.00859706 2.6025 0 2.52303 0C2.36954 0 2.1693 0.0283583 1.92216 0.0852542C1.67494 0.14206 1.4804 0.201643 1.33834 0.26424C1.05425 0.383494 0.753144 0.730063 0.434934 1.30383C0.145171 1.8378 0.000305176 2.36631 0.000305176 2.88897C0.000305176 3.04225 0.0102455 3.19139 0.0301262 3.3364C0.0500069 3.48127 0.0855294 3.64465 0.136724 3.8265C0.187828 4.00829 0.229052 4.14333 0.260217 4.23127C0.291411 4.31928 0.34965 4.47692 0.434904 4.70426C0.520039 4.93155 0.571233 5.07068 0.588278 5.12182C0.787115 5.67866 1.02291 6.17576 1.29559 6.61329C1.74425 7.34051 2.35652 8.09207 3.13205 8.86766C3.90761 9.64318 4.65901 10.2554 5.3863 10.7043C5.82376 10.9769 6.32105 11.2127 6.8778 11.4117C6.92896 11.4286 7.0681 11.4797 7.29529 11.5651C7.52258 11.6503 7.68028 11.7086 7.76828 11.7398C7.85631 11.7711 7.99139 11.8124 8.17303 11.8636C8.35506 11.9147 8.51828 11.9503 8.66315 11.9703C8.80811 11.9899 8.95727 12 9.11059 12C9.63321 12 10.1618 11.8551 10.6958 11.5653C11.2695 11.2473 11.616 10.9461 11.7353 10.6618C11.7981 10.5199 11.8575 10.3253 11.9143 10.0781C11.9713 9.83095 11.9996 9.63074 11.9996 9.47727C11.9998 9.39748 11.9912 9.33793 11.9741 9.29781Z" fill="#292929"/>
    </symbol>

    <symbol id="battery">
        <path d="M42.536 4H36V0H24V4H17.464C15.554 4 14 5.554 14 7.464V56.536C14 58.446 15.554 60 17.464 60H42.536C44.446 60 46 58.446 46 56.536V7.464C46 5.554 44.446 4 42.536 4ZM16 19H44V31H16V19ZM16 33H44V45H16V33ZM26 2H34V4H26V2ZM17.464 6H24H36H42.536C43.344 6 44 6.656 44 7.464V17H16V7.464C16 6.656 16.656 6 17.464 6ZM42.536 58H17.464C16.656 58 16 57.344 16 56.536V47H44V56.536C44 57.344 43.344 58 42.536 58Z" fill="black"/>
    </symbol>

     <symbol id="sound">
        <path d="M28.404 0.412994C27.428 -0.139006 26.273 -0.121006 25.314 0.456994C25.268 0.483994 25.224 0.515994 25.184 0.549994L11.634 12.013H1C0.447 12.013 0 12.46 0 13.013V32.013C0 32.279 0.105 32.533 0.293 32.72C0.481 32.907 0.734 33.013 1 33.013L11.61 33.008L25.153 45.448C25.203 45.494 25.257 45.534 25.314 45.568C25.806 45.865 26.351 46.014 26.896 46.014C27.413 46.013 27.929 45.88 28.404 45.612C29.403 45.048 30 44.018 30 42.857V3.16899C30 2.00799 29.403 0.977994 28.404 0.412994ZM28 42.857C28 43.288 27.783 43.667 27.421 43.872C27.266 43.959 26.873 44.127 26.421 43.898L13 31.569V27.013C13 26.46 12.553 26.013 12 26.013C11.447 26.013 11 26.46 11 27.013V31.009L2 31.013V14.013H11V18.013C11 18.566 11.447 19.013 12 19.013C12.553 19.013 13 18.566 13 18.013V13.477L26.405 2.13699C26.866 1.89499 27.265 2.06699 27.421 2.15499C27.783 2.35999 28 2.73899 28 3.16899V42.857Z" fill="black"/>
<path d="M38.797 4.06596C38.274 3.88896 37.706 4.16896 37.528 4.69196C37.351 5.21396 37.631 5.78296 38.154 5.96096C45.255 8.37196 50.026 15.024 50.026 22.514C50.026 29.997 45.264 36.65 38.177 39.068C37.655 39.246 37.375 39.814 37.554 40.338C37.696 40.753 38.084 41.015 38.5 41.015C38.607 41.015 38.716 40.998 38.823 40.961C46.719 38.268 52.025 30.855 52.025 22.515C52.026 14.166 46.71 6.75296 38.797 4.06596Z" fill="black"/>
<path d="M43.026 22.513C43.026 16.541 39.017 11.211 33.277 9.55098C32.744 9.39998 32.193 9.70298 32.039 10.235C31.886 10.765 32.191 11.32 32.723 11.473C37.612 12.886 41.027 17.426 41.027 22.513C41.027 27.6 37.612 32.14 32.723 33.553C32.192 33.706 31.886 34.261 32.039 34.791C32.166 35.229 32.565 35.514 33 35.514C33.092 35.514 33.185 35.501 33.277 35.475C39.018 33.815 43.026 28.485 43.026 22.513Z" fill="black"/>
    </symbol>
</svg>